HIERARCHY
ROOT Hips
{
    OFFSET 0.000000 0.000000 0.000000
    CHANNELS 6 Xposition Yposition Zposition Zrotation Xrotation Yrotation
        JOINT Chest
        {
            OFFSET -0.000000 29.391830 -0.000000
            CHANNELS 3 Zrotation Xrotation Yrotation
            JOINT Neck
            {
                OFFSET -0.000000 21.536943 0.000000
                CHANNELS 3 Zrotation Xrotation Yrotation
                JOINT Head
                {
                    OFFSET -0.000000 10.450000 0.000000
                    CHANNELS 3 Zrotation Xrotation Yrotation
                    End Site
                    {
                        OFFSET -0.000000 16.150003 0.000000
                    }
                }
            }
            JOINT LeftCollar
            {
                OFFSET -0.000000 21.536943 0.000000
                CHANNELS 3 Zrotation Xrotation Yrotation
                JOINT LeftShoulder
                {
                    OFFSET 19.500000 -0.000000 0.000000
                    CHANNELS 3 Zrotation Xrotation Yrotation
                    JOINT LeftElbow
                    {
                        OFFSET 20.632557 0.000000 0.000000
                        CHANNELS 3 Zrotation Xrotation Yrotation
                        JOINT LeftWrist
                        {
                            OFFSET 24.683100 0.000000 0.000000
                            CHANNELS 3 Zrotation Xrotation Yrotation
                            End Site
                            {
                                OFFSET 0.000000 -14.250000 0.000000
                            }
                        }
                    }
                }
            }
            JOINT RightCollar
            {
                OFFSET -0.000000 21.536943 0.000000
                CHANNELS 3 Zrotation Xrotation Yrotation
                JOINT RightShoulder
                {
                    OFFSET -19.500000 0.000000 0.000000
                    CHANNELS 3 Zrotation Xrotation Yrotation
                    JOINT RightElbow
                    {
                        OFFSET -20.632557 0.000000 0.000000
                        CHANNELS 3 Zrotation Xrotation Yrotation
                        JOINT RightWrist
                        {
                            OFFSET -24.683100 0.000000 0.000000
                            CHANNELS 3 Zrotation Xrotation Yrotation
                            End Site
                            {
                                OFFSET -0.000000 -14.250000 0.000000
                            }
                        }
                    }
                }
            }
        }
    JOINT LeftHip
    {
        OFFSET 11.400001 0.000000 0.000000
        CHANNELS 3 Zrotation Xrotation Yrotation
        JOINT LeftKnee
        {
            OFFSET -0.000000 -38.134491 0.000000
            CHANNELS 3 Zrotation Xrotation Yrotation
            JOINT LeftAnkle
            {
                OFFSET -0.000000 -39.452507 0.000000
                CHANNELS 3 Zrotation Xrotation Yrotation
                End Site
                {
                    OFFSET -0.000000 -4.750000 16.150003
                }
            }
        }
    }
    JOINT RightHip
    {
        OFFSET -11.400001 0.000000 0.000000
        CHANNELS 3 Zrotation Xrotation Yrotation
        JOINT RightKnee
        {
            OFFSET -0.000000 -38.134491 0.000000
            CHANNELS 3 Zrotation Xrotation Yrotation
            JOINT RightAnkle
            {
                OFFSET -0.000000 -39.452507 0.000000
                CHANNELS 3 Zrotation Xrotation Yrotation
                End Site
                {
                    OFFSET -0.000000 -4.750000 16.150003
                }
            }
        }
    }
}
MOTION
Frames:    14
Frame Time:    0.010000
-6.910349    84.227737    -23.315222    -4.766109    3.419992    -65.894913    3.395216    19.038677    -0.524620    -9.353603    4.162218    9.626955    -10.179643    -32.781830    6.491945    -19.312044    -2.360096    13.920532    -38.544544    38.735718    -26.922541    24.015503    -21.919582    -84.717651    98.416794    14.238627    36.732262    23.792906    -0.563822    -2.675885    -26.760530    57.705280    74.380798    -31.011421    -20.874929    67.119247    12.948656    36.193485    -102.053154    15.775022    -12.542853    16.073769    7.307476    10.548555    -17.073988    -10.056616    -1.653200    8.467527    4.608381    -2.150224    0.526642    -1.536159    22.335150    -9.694514    2.517702    -21.109657    -8.172375    
-6.910349    84.227737    -23.315222    -4.766095    3.420009    -65.894913    3.440691    19.010406    -0.527421    -9.280939    4.327670    9.451094    -9.443376    -31.353065    6.439435    -19.306150    -2.329851    13.591161    -38.596043    38.794556    -26.794001    23.966970    -21.913092    -84.737740    98.483963    14.277463    36.773434    23.819284    -0.609403    -2.940218    -26.691681    57.668964    74.291924    -31.076200    -20.893661    67.060287    12.992867    36.231972    -102.009216    15.775033    -12.542864    16.073788    7.307473    10.548539    -17.074007    -10.056606    -1.653191    8.467520    4.608388    -2.150241    0.526635    -1.536148    22.335136    -9.694518    2.517681    -21.109638    -8.172375    
-6.887003    84.211006    -22.927353    -4.422535    3.579881    -65.931999    3.453241    18.681997    -0.635712    -9.271350    4.424707    9.439361    -9.555297    -31.604595    6.369900    -19.333998    -2.365423    13.785514    -37.482578    39.412476    -28.004089    23.824892    -21.608730    -84.484100    99.260483    14.576804    37.474682    23.839066    -0.610423    -2.963884    -25.060913    57.388771    71.803154    -30.399815    -20.560774    68.572845    13.418417    35.219429    -101.465874    15.776826    -13.097715    16.346447    7.075982    11.042797    -17.175346    -9.636400    -1.230086    8.556717    4.396967    -2.400933    0.591401    -1.605775    22.275759    -9.655213    2.789709    -21.170834    -8.166418    
-6.196518    83.759171    -23.135233    -0.678877    5.358118    -66.248375    3.413431    14.641401    -0.223502    -9.346107    4.298044    9.568562    -9.467469    -31.702482    6.526069    -19.380552    -2.412293    14.135629    -36.907860    39.552574    -28.664236    23.630741    -21.359348    -84.446930    99.707504    14.757808    37.768204    23.796541    -0.588502    -2.729050    -24.442568    57.283691    70.817505    -29.888889    -20.511673    69.315140    13.778815    35.151619    -101.114357    16.372995    -17.950262    13.562399    6.139509    12.008382    -12.696241    -9.480342    -0.509677    8.177898    4.490395    -7.925496    0.151562    -1.971145    23.810936    -8.460833    2.755036    -21.322142    -8.483383    
-6.202618    83.776924    -22.858250    -0.684496    5.390116    -66.140900    3.487754    14.650740    -0.439951    -9.201975    4.462100    9.428667    -9.688707    -31.826241    6.297816    -19.421717    -2.381779    13.889910    -36.281029    39.788708    -29.211676    23.281090    -20.930656    -84.482773    100.360321    15.060940    38.137939    23.806660    -0.608813    -2.978173    -23.542620    57.034191    69.443092    -29.409901    -20.479736    70.094711    14.145776    34.974926    -100.629097    16.296410    -18.159889    13.529357    6.058866    12.428723    -12.815873    -9.155971    -0.518789    8.202101    4.344790    -7.764766    0.117377    -1.975062    23.675278    -8.519457    2.925019    -21.345671    -8.483257    
-6.156883    83.783928    -22.565737    -0.450634    5.501334    -66.070435    3.494459    14.458584    -0.609877    -9.168029    4.449502    9.435522    -9.762605    -31.996098    6.273330    -19.483553    -2.417485    13.972111    -35.515518    40.007774    -30.012819    22.933313    -20.602188    -84.478470    100.943237    15.306778    38.345726    23.767437    -0.634794    -2.958101    -22.672888    56.832756    68.058189    -28.891573    -20.412859    70.987381    14.462551    34.683048    -100.069786    16.208647    -18.699194    13.310193    5.922554    12.995669    -12.633817    -8.815042    -0.546186    8.194733    4.166298    -7.945242    0.076984    -2.017871    23.647171    -8.503311    3.109110    -21.377834    -8.510934    
-6.115179    83.804756    -22.239616    -0.204890    5.550800    -66.076561    3.412593    14.308103    -0.684840    -9.133080    4.411890    9.445617    -9.810371    -32.152279    6.259999    -19.558252    -2.436126    14.072991    -34.639328    40.211098    -30.905922    22.483200    -20.129879    -84.532661    101.680504    15.703620    38.627098    23.715328    -0.587823    -2.925754    -21.685804    56.559364    66.493767    -28.285749    -20.291153    72.019684    14.710613    34.332348    -99.494209    16.067118    -19.224913    13.251012    5.800886    13.648232    -12.549269    -8.464295    -0.657353    8.188210    3.929370    -8.110033    0.131133    -2.074225    23.629520    -8.499570    3.308998    -21.407459    -8.547407    
-6.074108    83.829338    -21.883570    0.050529    5.567673    -66.076851    3.295563    14.172482    -0.757622    -9.089085    4.365243    9.442206    -9.851328    -32.309540    6.234879    -19.624605    -2.481647    14.164363    -33.685566    40.478321    -31.893396    22.026505    -19.711033    -84.568718    102.370605    16.126354    38.799404    23.645071    -0.604049    -2.911305    -20.789722    56.297184    65.026535    -27.771402    -20.281435    72.931519    15.013825    34.112217    -98.867584    15.868595    -19.779020    13.156628    5.681283    14.378777    -12.435534    -8.118839    -0.833212    8.174360    3.640101    -8.251089    0.212313    -2.116287    23.595346    -8.533900    3.517726    -21.430483    -8.587087    
-6.035429    83.857132    -21.510492    0.309593    5.548000    -66.071892    3.127251    14.054368    -0.819854    -9.021645    4.343073    9.394718    -9.909995    -32.466675    6.158886    -19.684196    -2.496684    14.185286    -32.660141    40.782005    -32.934044    21.533957    -19.248159    -84.625763    103.099190    16.666170    38.976543    23.563643    -0.634176    -2.968842    -19.888958    56.046558    63.545216    -27.261349    -20.243181    73.865837    15.223099    33.865776    -98.292557    15.617088    -20.343338    13.030361    5.564931    15.162758    -12.295017    -7.787676    -1.067096    8.153666    3.304323    -8.362799    0.328568    -2.137318    23.542456    -8.623257    3.728592    -21.442966    -8.621582    
-6.000434    83.887444    -21.132565    0.568485    5.493142    -66.064171    2.922097    13.963917    -0.868433    -8.989437    4.249158    9.387504    -9.892364    -32.611916    6.152403    -19.732044    -2.508827    14.322181    -31.566250    41.101643    -34.100067    21.085520    -18.875267    -84.650826    103.728683    17.230923    39.063148    23.453003    -0.600444    -2.949650    -19.030052    55.796787    62.122398    -26.728830    -20.168171    74.823181    15.337030    33.642807    -97.808098    15.323621    -20.903955    12.878724    5.449853    15.977497    -12.132998    -7.473318    -1.349527    8.128395    2.931870    -8.445446    0.482160    -2.135140    23.471014    -8.775822    3.936159    -21.442200    -8.642204    
-5.970011    83.919540    -20.757849    0.826103    5.408392    -66.057861    2.699593    13.889912    -0.899944    -8.970125    4.124779    9.386137    -9.829123    -32.734074    6.169268    -19.751141    -2.534153    14.492927    -30.462345    41.466705    -35.307869    20.713392    -18.592026    -84.641167    104.256111    17.826485    39.108727    23.312906    -0.593266    -2.916496    -18.336538    55.596931    60.925461    -26.309103    -20.192562    75.612747    15.462267    33.570049    -97.382355    15.002919    -21.453602    12.710687    5.331401    16.808359    -11.956177    -7.172806    -1.672301    8.101628    2.532979    -8.504071    0.666311    -2.113373    23.383438    -8.985758    4.138429    -21.428139    -8.641665    
-5.945001    83.952698    -20.389515    1.082543    5.301346    -66.058632    2.451673    13.821245    -0.908957    -8.928188    4.051229    9.324700    -9.796095    -32.849392    6.112320    -19.735151    -2.550451    14.537200    -29.406185    41.888149    -36.451046    20.396952    -18.342983    -84.626167    104.727760    18.474188    39.159344    23.153975    -0.619376    -2.990788    -17.744225    55.451534    59.869789    -25.982288    -20.252954    76.293648    15.511343    33.522835    -97.050468    14.671032    -21.989557    12.539815    5.204649    17.648788    -11.775149    -6.880770    -2.030277    8.077289    2.116889    -8.545584    0.864891    -2.080749    23.283575    -9.232151    4.336652    -21.403408    -8.616016    
-5.926346    83.986053    -20.027208    1.336949    5.180385    -66.072662    2.190413    13.767142    -0.897045    -8.915971    3.927602    9.291894    -9.709711    -32.953857    6.106283    -19.692869    -2.568367    14.635401    -28.407465    42.285713    -37.565521    20.132923    -18.140776    -84.614731    105.130432    19.136673    39.181305    22.956490    -0.628824    -3.016142    -17.275908    55.371700    58.983562    -25.714634    -20.312082    76.913109    15.458612    33.462814    -96.826988    14.343718    -22.509447    12.382146    5.065775    18.495522    -11.602996    -6.593495    -2.420082    8.060336    1.691868    -8.575913    1.056025    -2.048606    23.176048    -9.483939    4.533974    -21.372536    -8.564417    
-5.915091    84.018578    -19.668669    1.586333    5.053553    -66.106277    1.925968    13.717303    -0.865376    -8.904955    3.820927    9.235444    -9.625967    -33.043213    6.075016    -19.635983    -2.553522    14.645603    -27.531977    42.615871    -38.528324    19.848587    -17.886559    -84.674599    105.556999    19.847288    39.205688    22.732357    -0.636681    -3.089998    -16.936680    55.332287    58.267746    -25.541294    -20.424662    77.413795    15.352173    33.427402    -96.688896    14.035877    -23.007975    12.252597    4.911163    19.344475    -11.450576    -6.310119    -2.838096    8.055902    1.265586    -8.598085    1.219750    -2.027110    23.064892    -9.710154    4.733691    -21.340572    -8.488256    
